# xmcd
#
# Track frame offsets:
# 151
# 17995
# 33205
# 47068
# 62079
# 77476
# 94961
# 108959
# 121839
# 137749
# 155408
# 171358
# 189141
# 205751
# 219940
# 238441
# 255877
# 271506
#
# Disc length: 3796 seconds
#
#
# Revision: 0
# Processed by: cddbd v1.5PL3 Copyright (c) Steve Scherf et al.
# Submitted via: FreeRIP 2.30 
#
DISCID=e80ed212
DTITLE=咱的台灣歌-6
DYEAR=1900
DGENRE=
TTITLE0=人生
TTITLE1=難忘的初戀情人
TTITLE2=男兒哀歌
TTITLE3=女性的哀怨
TTITLE4=離別的公共電話
TTITLE5=假情假愛
TTITLE6=何時再相會
TTITLE7=心愛可比天頂星
TTITLE8=素蘭小姐要出嫁
TTITLE9=淡水河邊
TTITLE10=望春風
TTITLE11=望你早歸
TTITLE12=悲戀的酒杯
TTITLE13=陳三五娘
TTITLE14=惜別夜港邊
TTITLE15=香港戀情
TTITLE16=斷魂嶺鐘聲淚
TTITLE17=十一哥
EXTD=
EXTT0=
EXTT1=
EXTT2=
EXTT3=
EXTT4=
EXTT5=
EXTT6=
EXTT7=
EXTT8=
EXTT9=
EXTT10=
EXTT11=
EXTT12=
EXTT13=
EXTT14=
EXTT15=
EXTT16=
EXTT17=
PLAYORDER=
